<?xml version="1.0" encoding="UTF-8" standalone="no"?>
<!-- Created with Inkscape (http://www.inkscape.org/) -->

<svg
   xmlns:dc="http://purl.org/dc/elements/1.1/"
   xmlns:cc="http://creativecommons.org/ns#"
   xmlns:rdf="http://www.w3.org/1999/02/22-rdf-syntax-ns#"
   xmlns:svg="http://www.w3.org/2000/svg"
   xmlns="http://www.w3.org/2000/svg"
   xmlns:sodipodi="http://sodipodi.sourceforge.net/DTD/sodipodi-0.dtd"
   xmlns:inkscape="http://www.inkscape.org/namespaces/inkscape"
   width="157.82339mm"
   height="115.58464mm"
   viewBox="0 0 157.82339 115.58464"
   version="1.1"
   id="svg276"
   inkscape:version="0.92.5 (2060ec1f9f, 2020-04-08)"
   sodipodi:docname="logo.svg"
   inkscape:export-filename="/home/machiuka/OwnCloud/programare/UBFPortal/new_lab/web/pictures/logoUrl.png"
   inkscape:export-xdpi="96"
   inkscape:export-ydpi="96">
  <defs
     id="defs270" />
  <sodipodi:namedview
     id="base"
     pagecolor="#ffffff"
     bordercolor="#666666"
     borderopacity="1.0"
     inkscape:pageopacity="0.0"
     inkscape:pageshadow="2"
     inkscape:zoom="0.35"
     inkscape:cx="-317.75995"
     inkscape:cy="-35.562735"
     inkscape:document-units="mm"
     inkscape:current-layer="layer1"
     showgrid="false"
     fit-margin-top="1"
     fit-margin-left="1"
     fit-margin-bottom="1"
     fit-margin-right="1"
     inkscape:window-width="1608"
     inkscape:window-height="986"
     inkscape:window-x="72"
     inkscape:window-y="27"
     inkscape:window-maximized="1" />
  <metadata
     id="metadata273">
    <rdf:RDF>
      <cc:Work
         rdf:about="">
        <dc:format>image/svg+xml</dc:format>
        <dc:type
           rdf:resource="http://purl.org/dc/dcmitype/StillImage" />
        <dc:title></dc:title>
      </cc:Work>
    </rdf:RDF>
  </metadata>
  <g
     inkscape:label="Layer 1"
     inkscape:groupmode="layer"
     id="layer1"
     transform="translate(-20.492351,-27.032136)">
    <g
       id="g397"
       transform="translate(-45.026439,59.722992)">
      <g
         id="g546"
         transform="matrix(2.5126051,0,0,2.1554622,-94.864132,39.876436)">
        <path
           style="fill:#fbfbfb;stroke-width:0.26458332"
           d="M 71.711563,-15.211092 V -33.202759 H 98.699062 125.68656 V -15.211092 2.780575 H 98.699062 71.711563 Z"
           id="path562"
           inkscape:connector-curvature="0" />
        <path
           style="fill:#cfd1d1;stroke-width:0.26458332"
           d="m 92.815168,2.5934458 c 0.329118,-0.063286 0.805368,-0.060883 1.058333,0.00534 0.252965,0.066222 -0.01631,0.1180041 -0.598397,0.1150673 -0.582083,-0.00294 -0.789055,-0.057121 -0.459936,-0.1204073 z M 93.861802,0.61351311 C 90.315976,-1.3101771 80.540748,-12.782501 76.834214,-19.370265 c -0.619752,-1.101509 -0.97625,-2.133507 -1.078184,-3.121149 -0.13049,-1.264326 -0.28014,-1.580905 -1.045543,-2.211815 -1.058722,-0.872688 -1.940591,-2.487994 -1.940591,-3.55455 0,-1.153698 0.768164,-2.536909 1.666994,-3.001713 0.54565,-0.282166 1.226221,-0.373899 2.129825,-0.287074 1.130933,0.108668 1.475116,0.285381 2.32002,1.191164 0.646586,0.693173 1.049177,1.419171 1.156021,2.084667 0.246169,1.53329 0.429836,1.728599 1.999242,2.125961 1.934816,0.489883 6.112325,2.572918 9.513314,4.743635 1.527969,0.975242 3.204414,2.014631 3.725434,2.309753 l 0.947308,0.536587 3.997266,-1.901474 c 4.44511,-2.114511 7.56317,-3.412183 8.78691,-3.656932 0.98334,-0.196668 1.00442,-0.228223 1.33056,-1.991486 0.17676,-0.955598 0.47538,-1.598324 0.9273,-1.995777 0.77645,-0.682888 2.50147,-1.209083 3.20949,-0.979017 1.55168,0.504202 1.99581,0.788741 2.49704,1.599745 0.30534,0.494042 0.76363,1.009829 1.01842,1.146193 0.2548,0.136364 1.75145,0.378969 3.3259,0.539121 3.39186,0.345022 3.83645,0.531535 3.83645,1.609443 0,2.453966 -5.56023,4.068693 -8.54288,2.480907 -0.69444,-0.369683 -1.37811,-0.600781 -1.51925,-0.513552 -0.14114,0.08723 -0.25662,0.989166 -0.25662,2.004303 0,2.586386 1.01051,5.467109 3.08474,8.793885 0.92268,1.4798517 1.67763,2.8472953 1.67768,3.0387629 1.7e-4,0.6885888 -0.5872,1.4229509 -1.41462,1.7686732 -1.35491,0.5661184 -6.1451,1.0124044 -9.00098,0.8385916 l -2.61047,-0.158877 -2.33603,2.1422572 c -3.10763,2.84985893 -5.156919,4.35943652 -6.579218,4.8464868 -1.622712,0.5556779 -2.048855,0.5059786 -3.79794,-0.44294159 z m 3.463217,-2.92616741 c 1.815384,-2.4628237 5.405871,-7.9218917 7.233631,-10.9982027 3.44713,-5.801868 2.72853,-6.301675 -4.23702,-2.947001 -2.098458,1.010635 -3.607763,1.575933 -4.207629,1.575933 -0.707596,0 -1.624245,-0.445154 -3.763909,-1.827874 -3.489113,-2.254778 -6.376365,-3.728376 -7.305085,-3.728376 -0.663855,0 -0.6939,0.05482 -0.54374,0.992187 0.199359,1.244481 1.815203,4.516508 3.732028,7.557223 2.405032,3.8151704 7.398303,10.75067939 7.745442,10.75819356 0.177311,0.003836 0.783137,-0.61809846 1.346282,-1.38208286 z M 109.54698,-22.112271 c 1.17881,-0.473554 1.18215,-0.478441 0.33608,-0.492726 -0.85984,-0.01452 -2.88672,0.647924 -3.37879,1.104283 -0.38985,0.361562 1.63183,-0.04478 3.04271,-0.611557 z m 3.93406,-4.830978 c 0.37685,-0.454086 0.14822,-0.683409 -0.5098,-0.511333 -0.5285,0.138206 -0.64699,0.380485 -0.33746,0.690017 0.26727,0.267263 0.52168,0.213607 0.84726,-0.178684 z m -37.74781,-3.137427 c -0.246945,-0.246944 -0.390504,-0.244496 -0.646018,0.01102 -0.261634,0.261634 -0.248618,0.377898 0.06393,0.571066 0.530578,0.327915 1.01133,-0.152837 0.582084,-0.582084 z"
           id="path560"
           inkscape:connector-curvature="0" />
        <path
           style="fill:#a7a4a3;stroke-width:0.26458332"
           d="m 96.503218,0.74809077 c -0.07299,-0.11905985 1.167865,-2.18100547 2.757449,-4.58209927 5.604003,-8.4649425 8.168843,-12.8716715 8.169433,-14.0361465 8e-4,-1.750212 -2.55443,-1.328764 -7.913833,1.305224 -1.515067,0.744612 -2.98141,1.353839 -3.258539,1.353839 -0.642112,0 -1.157154,-0.272862 -3.888577,-2.060111 -2.65044,-1.73426 -5.917914,-3.424141 -7.054383,-3.648405 -1.119825,-0.220978 -1.804715,0.462304 -1.588366,1.584638 0.357608,1.855132 3.013536,6.571958 7.159551,12.7150842 4.625051,6.85291484 4.884353,7.28379409 4.383359,7.28379409 -2.384931,0 -14.867733,-14.35004829 -18.126326,-20.83776129 -0.394746,-0.785922 -0.710632,-1.920531 -0.760004,-2.729809 -0.07532,-1.234642 -0.190985,-1.470322 -1.066106,-2.172368 -0.539888,-0.433114 -1.155229,-1.123211 -1.367423,-1.533548 -0.583476,-1.12832 -0.468476,-3.418181 0.171667,-3.418181 0.129952,0 0.236276,0.176326 0.236276,0.391834 0,0.429818 1.126442,0.819158 1.572463,0.543501 0.153791,-0.09505 0.27962,-0.582507 0.27962,-1.083242 0,-1.054293 0.296087,-1.131228 1.508509,-0.391971 0.982686,0.599179 1.623489,1.709835 1.88785,3.272071 0.174204,1.029454 0.267142,1.128002 1.371815,1.454639 3.772719,1.115539 6.167974,2.328798 11.702412,5.927578 2.395487,1.55767 2.98025,1.829745 3.704167,1.723453 0.472792,-0.06942 2.883684,-1.08734 5.357538,-2.262045 2.47385,-1.174706 5.4453,-2.443691 6.6032,-2.819968 2.29434,-0.745574 2.51482,-0.932851 2.52087,-2.141218 0.002,-0.445129 0.15915,-1.021427 0.3487,-1.280662 0.31337,-0.428551 0.37635,-0.433142 0.69386,-0.05057 0.72913,0.878554 2.30379,0.25612 2.08279,-0.823294 -0.0719,-0.351066 -0.30293,-0.456407 -0.88174,-0.401988 -0.60114,0.05652 -0.69164,0.01111 -0.38747,-0.194386 0.21828,-0.147471 0.85872,-0.269952 1.42319,-0.27218 0.90042,-0.0036 1.19784,0.17446 2.42455,1.451156 0.76902,0.800365 1.55733,1.457533 1.7518,1.460374 1.21797,0.01779 6.17871,0.819336 6.39221,1.032837 0.45884,0.458837 -1.43367,2.045425 -2.99173,2.508117 -2.14064,0.635702 -3.31804,0.5441 -4.96683,-0.386416 -1.38142,-0.779624 -1.45812,-0.792949 -2.1091,-0.366407 -0.66054,0.432799 -0.67213,0.493422 -0.52141,2.727275 0.2199,3.259113 1.14366,5.712772 3.49984,9.296096 1.50503,2.2888721 1.6342,2.7775144 0.86532,3.2734335 -1.05928,0.6832291 -3.91221,1.0513 -8.3096,1.0720671 l -4.26156,0.020135 -2.39352,2.2777318 c -3.03441,2.8876176 -6.674276,5.3850171 -7.021922,4.81790916 z m 6.939902,-8.22856427 c 2.03165,-2.3252658 4.78094,-6.6826705 4.78094,-7.5773905 0,-0.532738 -0.003,-0.532806 -0.50508,-0.01359 -0.54235,0.56032 -6.37408,9.5600503 -6.37408,9.8367066 0,0.091308 0.0413,0.1164034 0.0918,0.055772 0.0505,-0.060634 0.95339,-1.096309 2.00639,-2.3015006 z m 0.54761,-12.8864485 c 1.0914,-0.337727 3.05178,-0.810786 4.3564,-1.051245 2.42912,-0.447719 3.05193,-0.726472 3.05193,-1.365947 0,-0.628149 -1.98887,-0.421165 -4.17572,0.43457 -2.04737,0.801154 -6.73975,3.050383 -5.74615,2.754336 0.29104,-0.08672 1.42213,-0.433988 2.51354,-0.771714 z m -24.486408,-3.61789 c 0.810686,-0.369373 0.857843,-0.657242 0.144741,-0.883572 -0.782555,-0.248373 -1.5875,0.09606 -1.5875,0.679288 0,0.582718 0.467047,0.648848 1.442759,0.204284 z"
           id="path558"
           inkscape:connector-curvature="0" />
        <path
           style="fill:#a3827b;stroke-width:0.26458332"
           d="m 97.1401,-0.19598756 c 0.171456,-0.32742188 1.459217,-1.78593754 2.86169,-3.24114584 5.01,-5.1983837 7.03495,-7.8689246 8.6849,-11.4538186 0.70278,-1.526954 0.65355,-2.207 -0.14467,-1.998262 -0.42274,0.110551 -0.53739,-0.04994 -0.68208,-0.954818 -0.348,-2.176269 -2.37227,-1.975632 -8.105127,0.803343 -1.77569,0.860757 -3.412694,1.565014 -3.637787,1.565014 -0.225092,0 -1.71992,-0.846992 -3.321839,-1.882204 -12.264535,-7.925739 -12.575762,-3.818538 -0.963443,12.7143831 1.76205,2.5086999 3.138782,4.62621851 3.059405,4.70559616 C 94.130845,0.82240165 86.40313,-7.3731175 81.390835,-14.255469 c -3.675971,-5.047453 -4.511539,-6.601519 -4.564975,-8.490357 -0.02479,-0.876365 -0.05456,-1.655613 -0.06615,-1.731661 -0.01159,-0.07605 -0.4406,-0.364203 -0.953361,-0.640343 -1.148012,-0.618246 -2.043069,-2.003011 -1.930093,-2.986095 0.07642,-0.664978 0.182747,-0.733209 1.142595,-0.733209 0.939991,0 1.100654,-0.09615 1.436811,-0.859896 0.4825,-1.096233 0.826764,-1.082158 1.843071,0.07535 0.638445,0.727148 0.821963,1.183404 0.824772,2.05052 0.002,0.6134 0.07541,1.383164 0.16315,1.710586 0.113745,0.424435 0.04518,0.595312 -0.238884,0.595312 -0.713889,0 -1.565188,0.885253 -1.361569,1.415875 0.147761,0.385062 0.355876,0.449314 1.008377,0.311324 0.452203,-0.09563 1.314213,-0.236593 1.915577,-0.313248 0.915094,-0.116646 1.071854,-0.22172 0.961328,-0.64437 -0.42786,-1.636141 5.627384,1.217755 12.100491,5.703079 1.091406,0.756254 2.281943,1.451365 2.645637,1.544691 0.484766,0.124395 1.473438,-0.209771 3.704168,-1.251988 3.80226,-1.776452 4.80412,-2.110436 7.9383,-2.646344 3.16579,-0.541315 3.24082,-0.565951 3.63219,-1.192632 0.26283,-0.420856 0.25018,-0.593113 -0.0668,-0.910099 -0.44389,-0.443888 -0.50549,-1.416109 -0.14911,-2.353447 0.2002,-0.526565 0.38298,-0.615481 1.06075,-0.516005 0.91002,0.133561 1.5421,-0.26253 1.89338,-1.186483 0.40804,-1.07323 1.39462,-0.630164 2.24091,1.006381 0.21862,0.422775 0.52153,0.768683 0.67312,0.768683 0.16061,0 0.20116,0.234588 0.0972,0.562199 -0.11195,0.352724 -0.0447,0.646964 0.18061,0.789698 0.56998,0.361153 2.53152,0.272619 4.10693,-0.185364 1.62499,-0.472399 2.8162,-0.324609 2.68584,0.333224 -0.12888,0.650371 -2.64759,1.939382 -4.13338,2.115351 -1.7001,0.201352 -2.37545,0.02236 -3.6063,-0.955795 l -0.99689,-0.792227 -0.93929,0.481885 -0.93929,0.481886 0.0581,2.199617 c 0.0759,2.872545 0.94337,5.601785 2.69546,8.480774 0.74691,1.227303 1.60323,2.6343161 1.90293,3.1266954 0.50609,0.8314706 0.5132,0.918414 0.0999,1.2206621 -1.04133,0.7614385 -7.51197,1.3668584 -10.18168,0.9526373 l -1.93265,-0.2998608 -2.4541,2.2655986 c -2.63854,2.4358706 -6.166327,5.13796765 -6.719495,5.14677298 -0.268675,0.004286 -0.274614,-0.11952552 -0.0283,-0.58989914 z"
           id="path556"
           inkscape:connector-curvature="0" />
        <path
           style="fill:#8f665e;stroke-width:0.26458332"
           d="m 97.376145,-0.14809533 c 0,-0.1657985 1.16086,-1.51709967 2.579688,-3.00289127 5.904357,-6.1830149 8.340147,-9.4666294 9.452277,-12.7423574 0.52381,-1.542829 0.38635,-2.035777 -0.50527,-1.811996 -0.54935,0.13788 -0.68402,0.05194 -0.82999,-0.529646 -0.48697,-1.940224 -2.63092,-1.641195 -8.544973,1.191815 -1.799724,0.862123 -3.349544,1.567496 -3.444044,1.567496 -0.0945,0 -1.360436,-0.780285 -2.813191,-1.733966 -3.107661,-2.040067 -6.892863,-3.991842 -8.227046,-4.242136 -0.750113,-0.140722 -1.056401,-0.06712 -1.478891,0.355366 -0.442281,0.442282 -0.500504,0.724271 -0.34256,1.659131 0.413479,2.447359 4.090741,8.785538 9.345752,16.108459 1.191451,1.6603028 2.109115,3.07588982 2.039255,3.1457504 -0.340413,0.34041293 -5.720198,-4.8762974 -8.676444,-8.4134379 -4.277095,-5.1175335 -8.583612,-11.4772545 -8.839451,-13.0538095 -0.21796,-1.343131 0.02418,-1.863023 0.699407,-1.501654 0.401597,0.214928 0.725251,0.183419 1.330411,-0.129521 0.588684,-0.304421 1.15862,-0.365934 2.159868,-0.233113 1.130249,0.149932 1.418061,0.101248 1.702701,-0.288021 0.254137,-0.347553 0.533812,-0.421839 1.083667,-0.287839 1.485232,0.361953 10.020821,5.521404 10.893836,6.584925 0.644537,0.785185 2.214166,0.54827 4.735389,-0.714746 3.267804,-1.637017 5.656724,-2.436402 8.342464,-2.791568 1.28066,-0.169357 2.61679,-0.417537 2.96917,-0.551513 0.70075,-0.266424 1.12901,-1.39805 0.72638,-1.919389 -0.13902,-0.180012 -0.24161,-0.744012 -0.22798,-1.253335 0.023,-0.858618 0.0865,-0.926704 0.87304,-0.935132 0.89636,-0.0096 2.19445,-0.981454 2.19445,-1.642933 0,-0.229549 0.22007,-0.337182 0.58192,-0.284608 0.65011,0.09446 1.52023,1.406579 1.78221,2.687526 0.15364,0.751187 0.29821,0.858699 1.43371,1.066148 0.92651,0.169268 1.73401,0.116391 3.03198,-0.198544 2.77067,-0.672266 3.56595,-0.529314 2.48708,0.447055 -0.88922,0.804731 -3.05536,1.580786 -4.46938,1.601225 -1.15634,0.01671 -1.59184,-0.122664 -2.59699,-0.831161 -1.40486,-0.990242 -1.42944,-0.994172 -2.47267,-0.395439 l -0.79419,0.455804 0.13407,2.388467 c 0.21711,3.867943 0.9208,5.82714 3.59099,9.997999 0.72299,1.1293048 1.25092,2.219009 1.17319,2.4215647 -0.26698,0.695755 -2.82552,1.0496079 -7.75975,1.0731945 l -4.80388,0.022963 -2.1313,2.0362244 c -1.95267,1.8655718 -4.76095,4.10998461 -5.916034,4.72816506 -0.32125,0.1719289 -0.468871,0.15602215 -0.468871,-0.05052199 z M 75.760835,-25.253616 c -1.112454,-0.678306 -1.726638,-1.653601 -1.621101,-2.574229 0.07407,-0.646142 0.185534,-0.73402 0.842165,-0.66397 0.788812,0.08415 1.756747,-0.557445 1.756747,-1.164461 0,-1.083675 1.459124,-0.478771 2.006774,0.831941 0.619772,1.483321 0.490627,2.900138 -0.322664,3.539873 -0.869276,0.683772 -1.577629,0.691981 -2.661921,0.03085 z"
           id="path554"
           inkscape:connector-curvature="0" />
        <path
           style="fill:#685d5b;stroke-width:0.26458332"
           d="m 97.640729,-0.27751097 c 0,-0.17963886 4.798811,-5.40359873 7.301781,-7.94867593 2.87156,-2.9198811 5.12675,-7.0005341 5.13105,-9.2843941 0.003,-1.561125 -0.23684,-1.870304 -0.87367,-1.126541 -0.57992,0.677293 -0.82651,0.650621 -1.34837,-0.145845 -0.33439,-0.510338 -0.6587,-0.661121 -1.41949,-0.659983 -1.56026,0.0023 -2.8498,0.44425 -6.729372,2.306087 l -3.62661,1.740443 -2.194222,-1.451433 c -5.989596,-3.961994 -9.321142,-5.353729 -10.350858,-4.324014 -0.577588,0.577589 -0.55807,1.308172 0.08487,3.176922 1.001242,2.910161 4.449919,8.6079535 8.974287,14.8270277 1.035971,1.4240167 1.82911,2.64359241 1.762533,2.71016951 C 94.114526,-0.2196122 92.702406,-1.4429106 89.952285,-4.2697322 83.625858,-10.772604 76.073456,-21.513263 77.103228,-22.543035 c 0.101629,-0.101629 0.561045,-0.04276 1.020923,0.130828 0.829543,0.313117 1.055149,0.217849 1.330079,-0.561665 0.04309,-0.122185 1.384482,-0.256869 2.980863,-0.299299 l 2.902511,-0.07714 1.5875,0.942352 c 4.944303,2.934973 6.696109,4.07222 7.392511,4.799108 1.155421,1.205999 2.04706,1.090683 5.982685,-0.773747 3.58118,-1.696517 5.50955,-2.260304 8.82442,-2.579954 1.85232,-0.178616 2.15235,-0.28393 2.62564,-0.92162 0.41133,-0.554199 0.4766,-0.858782 0.28351,-1.322916 -0.36512,-0.877665 -0.16805,-2.065509 0.31211,-1.881252 0.23412,0.08984 0.86457,-0.331275 1.60614,-1.072844 0.6714,-0.671405 1.31549,-1.220737 1.4313,-1.220737 0.4355,0 1.30731,1.422744 1.30731,2.13345 0,1.19805 0.60688,1.570717 2.55786,1.570717 0.94948,0 2.37855,-0.189609 3.17572,-0.421353 1.53361,-0.44583 1.83968,-0.390068 1.57956,0.287775 -0.29733,0.774854 -2.80264,1.715679 -4.57613,1.718493 -1.47678,0.0024 -1.73235,-0.08409 -2.74135,-0.927079 l -1.11273,-0.929665 -1.09511,0.618766 c -0.64587,0.36493 -1.05529,0.773439 -0.99802,0.99581 0.0534,0.207375 0.18757,1.508139 0.29816,2.890587 0.26723,3.340338 1.37257,6.148713 3.77132,9.5819045 0.58108,0.8316624 0.99311,1.6773147 0.91563,1.8792275 -0.26176,0.682139 -3.29718,1.0977113 -8.05096,1.1022378 l -4.55626,0.00434 -1.66145,1.6155009 c -2.85561,2.776632 -6.556241,5.58965563 -6.556241,4.98370423 z M 75.977042,-25.188506 c -0.933676,-0.459961 -1.881545,-1.730411 -1.88324,-2.524149 -7.54e-4,-0.352966 0.21912,-0.463021 0.925053,-0.463021 0.915445,0 1.523405,-0.4177 2.151834,-1.478425 0.290199,-0.489826 0.32138,-0.48592 0.978463,0.12259 1.312933,1.215877 1.264187,3.699513 -0.08632,4.397885 -0.946116,0.489256 -0.983235,0.48828 -2.085794,-0.05488 z"
           id="path552"
           inkscape:connector-curvature="0" />
        <path
           style="fill:#5a271d;stroke-width:0.26458332"
           d="m 99.939677,-2.5934962 c 0.900623,-0.9649752 2.419323,-2.6885107 3.374893,-3.8300767 0.95557,-1.1415676 2.07352,-2.3240741 2.48432,-2.627793 0.73456,-0.5430825 2.1683,-2.7657631 3.632,-5.6305591 0.54423,-1.065187 0.74806,-1.85689 0.76052,-2.953921 0.0205,-1.8004 -0.19002,-2.092192 -0.90219,-1.250749 l -0.53558,0.632795 -0.55144,-0.727605 c -1.08304,-1.429021 -3.74097,-0.87098 -9.411762,1.976029 l -2.732586,1.371889 -0.729916,-0.568866 c -1.331379,-1.037623 -6.316095,-4.019673 -7.861952,-4.703324 -3.376047,-1.493048 -4.876532,-1.048579 -4.548149,1.34724 0.341511,2.491593 3.289886,7.823617 7.8171,14.1369285 3.212175,4.47945679 3.138011,4.3595053 2.47658,4.0055192 -0.876326,-0.4689951 -5.536717,-5.5183424 -8.458914,-9.1648947 -4.743436,-5.919239 -8.073818,-11.273123 -7.419476,-11.927465 0.08255,-0.08255 0.519839,0.04111 0.971747,0.274797 0.801689,0.414569 0.827628,0.409173 1.067637,-0.222098 0.239369,-0.629587 0.322396,-0.647345 3.086668,-0.660171 l 2.840683,-0.01318 2.400122,1.348227 c 3.384062,1.900937 5.742137,3.452406 6.76083,4.44821 1.122393,1.097174 1.74669,1.010915 5.526313,-0.763576 4.302085,-2.019779 5.431325,-2.394022 8.059205,-2.670919 1.33468,-0.140632 2.64059,-0.257759 2.90202,-0.260281 0.26143,-0.0025 0.67814,-0.361019 0.92604,-0.796662 0.24789,-0.435642 0.58043,-0.79283 0.73897,-0.79375 0.52584,-0.003 0.90237,1.322395 0.90237,3.176531 0,2.71432 1.07413,5.537504 3.4694,9.118725 0.71121,1.0633363 1.2931,2.0523718 1.2931,2.1978558 0,0.8772322 -9.27321,1.4517778 -11.56865,0.7167653 -0.48672,-0.1558528 -0.87545,0.1034151 -2.24895,1.4999944 -1.82477,1.8554171 -4.649575,4.2675493 -5.570277,4.7565178 -0.32349,0.17180195 0.148704,-0.4771575 1.049324,-1.4421335 z M 118.10173,-22.37478 c -0.46088,-0.136623 -1.1378,-0.604748 -1.50428,-1.040276 -0.78769,-0.936118 -0.94715,-0.956304 -2.08314,-0.263692 -1.2106,0.738106 -2.01035,0.687083 -2.32805,-0.148527 -0.36829,-0.968696 -0.32464,-1.173401 0.25025,-1.173401 0.27955,0 1.04808,-0.539801 1.70783,-1.199559 l 1.19956,-1.19956 0.40365,0.616039 c 0.222,0.338822 0.54231,1.027451 0.7118,1.530289 0.4514,1.339228 0.65901,1.5126 2.03063,1.695757 1.10417,0.147445 1.87818,0.05522 4.61689,-0.550089 1.21418,-0.268359 0.83059,0.342077 -0.66145,1.052627 -1.64246,0.782181 -3.18517,1.023828 -4.34369,0.680392 z m -42.054646,-3.138776 c -0.992474,-0.444344 -1.689688,-1.39286 -1.689688,-2.298716 0,-0.309192 0.181089,-0.365675 0.762768,-0.237917 0.655644,0.144004 0.8785,0.02713 1.586828,-0.832196 l 0.82406,-0.999727 0.549808,0.549807 c 0.67608,0.676081 0.915596,2.388072 0.454088,3.245688 -0.503787,0.936183 -1.27832,1.11459 -2.487864,0.573061 z"
           id="path550"
           inkscape:connector-curvature="0" />
        <path
           style="fill:#2b1410;stroke-width:0.26458332"
           d="m 101.3472,-3.8456501 c 0.79909,-0.927354 2.12313,-2.4028507 2.94229,-3.2788805 l 1.48939,-1.5927833 4.72832,-0.025281 c 4.89477,-0.026169 5.91894,-0.1620192 5.91894,-0.7851087 0,-0.201503 -0.5212,-1.1162144 -1.15823,-2.0326914 -2.75507,-3.963673 -3.94793,-7.847096 -3.02951,-9.862807 0.53735,-1.179355 0.87461,-0.576458 1.04473,1.867581 0.0904,1.298084 0.37257,2.955466 0.62714,3.683071 0.70916,2.026877 2.65182,5.758112 3.30457,6.3470392 1.15476,1.0418472 1.17089,1.4093802 0.0746,1.6985452 -2.30576,0.6081622 -6.65795,0.8763251 -8.94759,0.5513107 l -2.23177,-0.3168005 -2.56111,2.4238303 c -3.14656,2.9778934 -4.144486,3.5775239 -2.20174,1.3229749 z M 89.670555,-5.3553627 c -1.666753,-1.7438402 -5.131978,-5.8869793 -4.923732,-5.8869793 0.05757,0 1.166544,1.207744 2.464391,2.6838755 1.297848,1.4761314 2.815472,3.2025376 3.372497,3.8364582 1.528901,1.7399608 1.013713,1.3826305 -0.913156,-0.6333544 z M 83.18449,-16.081831 c -1.77475,-2.718807 -2.020874,-3.325978 -1.87453,-4.624334 0.179166,-1.589564 0.640007,-1.981461 2.359272,-2.006312 1.153428,-0.01667 1.683201,0.141003 2.86467,0.852608 0.797244,0.480184 1.21141,0.787948 0.920369,0.683917 -4.766068,-1.703587 -5.866616,-0.231223 -3.690951,4.937925 0.3735,0.887397 0.637341,1.655197 0.586315,1.706224 -0.05103,0.05103 -0.575342,-0.646486 -1.165145,-1.550028 z m -3.263953,-1.552005 c -1.398053,-1.990756 -1.760749,-2.91461 -0.708459,-1.804576 0.6244,0.658663 2.404564,3.698153 2.165929,3.698153 -0.07021,0 -0.726076,-0.85211 -1.45747,-1.893577 z m 16.264983,1.364411 c 0.728262,-0.312945 0.987161,-0.312945 0.79375,0 -0.08994,0.14552 -0.424385,0.256215 -0.743219,0.245987 -0.558896,-0.01793 -0.56071,-0.02676 -0.05053,-0.245987 z m 11.40827,-3.480343 c -0.27975,-0.162489 -1.09141,-0.230231 -1.85209,-0.154576 l -1.3541,0.134674 1.05834,-0.346211 c 1.73878,-0.568804 3.0427,-0.439005 3.0427,0.302888 0,0.438147 -0.22233,0.453856 -0.89485,0.06322 z m 9.707,-3.281435 c -0.61269,-0.558226 -0.64993,-0.654687 -0.21319,-0.55227 1.9424,0.455499 4.00419,0.374861 5.82084,-0.227656 0.46888,-0.155514 0.45894,-0.113455 -0.0873,0.369217 -0.74833,0.661221 -2.17559,1.08361 -3.66824,1.085594 -0.82158,0.0011 -1.30248,-0.174143 -1.85209,-0.674885 z m -4.57881,-0.848478 c 0,-0.256579 0.64925,-0.973577 1.44278,-1.593331 1.36398,-1.065282 1.45791,-1.098555 1.71979,-0.609221 0.52644,0.983673 0.30096,1.457016 -0.99004,2.07828 -1.49592,0.719881 -2.17253,0.758584 -2.17253,0.124272 z m -36.644792,-1.691101 c -0.583069,-0.318913 -1.190625,-0.99889 -1.190625,-1.332547 0,-0.117707 0.422794,-0.214013 0.939542,-0.214013 0.823674,0 0.98726,-0.114204 1.326468,-0.926042 0.662757,-1.586202 1.438156,-1.097359 1.438156,0.906674 0,1.570419 -1.171251,2.300104 -2.513541,1.565928 z"
           id="path548"
           inkscape:connector-curvature="0" />
      </g>
    </g>
    <g
       aria-label="https://unbaiatsiofata.ro/"
       style="font-style:normal;font-weight:normal;font-size:10.58333302px;line-height:1.25;font-family:sans-serif;letter-spacing:0px;word-spacing:0px;fill:#5a271d;fill-opacity:1;stroke:none;stroke-width:0.26458332"
       id="text342"
       transform="matrix(1.4641411,0,0,4.169231,-9.3375502,-446.52815)">
      <path
         d="m 25.90392,136.68051 q 0,0 0.01034,1.67949 0,0.29972 -0.217041,0.51159 -0.206706,0.20671 -0.511597,0.20671 h -0.0155 q -0.299723,0 -0.511596,-0.20671 -0.206706,-0.2067 -0.206706,-0.51159 v -1.96888 q 0,-0.79065 -0.45992,-1.01802 -0.45992,-0.22221 -0.961182,0.0879 -0.506429,0.30489 -0.501261,0.69246 v 2.19625 q 0,0.31006 -0.217041,0.52193 -0.217041,0.20671 -0.521932,0.20671 h -0.0052 q -0.310058,0 -0.521932,-0.20671 -0.206706,-0.2067 -0.206706,-0.52193 v -5.29683 q 0,-0.29973 0.206706,-0.52194 0.227377,-0.2067 0.5271,-0.2067 h 0.01033 q 0.299723,0 0.521932,0.2067 0.206706,0.20671 0.206706,0.5116 l 0.0155,1.82935 q 0.578776,-0.5116 1.09554,-0.56844 1.173055,-0.12403 1.720825,0.5736 0.542603,0.69764 0.542603,1.80351 z"
         style="font-style:normal;font-variant:normal;font-weight:normal;font-stretch:normal;font-family:Dyuthi;-inkscape-font-specification:Dyuthi;fill:#5a271d;fill-opacity:1;stroke-width:0.26458332"
         id="path344"
         inkscape:connector-curvature="0" />
      <path
         d="m 28.379221,136.79937 q 0,0.79065 0.434082,1.01802 0.335897,0.18604 0.160197,0.69763 -0.1757,0.5271 -0.558106,0.5271 -0.620117,0 -0.997355,-0.7338 -0.320394,-0.63045 -0.320394,-1.60197 v -1.26607 H 26.91161 q -0.211873,0 -0.3514,-0.13436 -0.144694,-0.12919 -0.139526,-0.34623 v -0.0103 q 0,-0.20154 0.139526,-0.34623 0.139527,-0.14469 0.3514,-0.14469 h 0.186035 v -0.5271 q 0,-0.36174 0.284221,-0.57361 0.155029,-0.12403 0.439249,-0.12403 h 0.02067 q 0.1757,0 0.356567,0.22738 0.180868,0.22738 0.180868,0.47026 v 0.5271 h 0.434082 q 0.191203,0 0.335897,0.14986 0.144694,0.14986 0.144694,0.34106 v 0.0103 q 0,0.22221 -0.139527,0.3514 -0.139526,0.12919 -0.341064,0.12919 H 28.37922 Z"
         style="font-style:normal;font-variant:normal;font-weight:normal;font-stretch:normal;font-family:Dyuthi;-inkscape-font-specification:Dyuthi;fill:#5a271d;fill-opacity:1;stroke-width:0.26458332"
         id="path346"
         inkscape:connector-curvature="0" />
      <path
         d="m 31.722686,136.79937 q 0,0.79065 0.434082,1.01802 0.335897,0.18604 0.160197,0.69763 -0.1757,0.5271 -0.558105,0.5271 -0.620118,0 -0.997356,-0.7338 -0.320393,-0.63045 -0.320393,-1.60197 v -1.26607 h -0.186036 q -0.211873,0 -0.351399,-0.13436 -0.144694,-0.12919 -0.139527,-0.34623 v -0.0103 q 0,-0.20154 0.139527,-0.34623 0.139526,-0.14469 0.351399,-0.14469 h 0.186036 v -0.5271 q 0,-0.36174 0.28422,-0.57361 0.155029,-0.12403 0.43925,-0.12403 h 0.02067 q 0.1757,0 0.356568,0.22738 0.180867,0.22738 0.180867,0.47026 v 0.5271 h 0.434082 q 0.191203,0 0.335897,0.14986 0.144694,0.14986 0.144694,0.34106 v 0.0103 q 0,0.22221 -0.139526,0.3514 -0.139527,0.12919 -0.341065,0.12919 h -0.434082 z"
         style="font-style:normal;font-variant:normal;font-weight:normal;font-stretch:normal;font-family:Dyuthi;-inkscape-font-specification:Dyuthi;fill:#5a271d;fill-opacity:1;stroke-width:0.26458332"
         id="path348"
         inkscape:connector-curvature="0" />
      <path
         d="m 36.66812,137.00607 q 0,0 0,-0.62011 0,-0.5271 -0.28422,-0.90434 -0.279053,-0.38241 -0.687297,-0.38241 -0.237711,-0.0362 -0.48059,0.0517 -0.490927,0.1602 -0.490927,0.74414 0,0 0,1.75183 0.09302,0.29972 0.537435,0.46509 0.444418,0.1602 0.914673,-0.0672 0.227376,-0.093 0.361735,-0.38757 0.129191,-0.29456 0.129191,-0.65113 z m -0.847493,2.02055 q -0.589112,0 -1.095541,-0.30489 v 1.61231 q 0,0.29972 -0.222208,0.52709 -0.211874,0.21188 -0.511597,0.20671 h -0.02067 q -0.325562,0 -0.5271,-0.20671 -0.206706,-0.2067 -0.206706,-0.52709 v -5.77743 q 0,-0.11886 0.08268,-0.21187 0.08268,-0.093 0.217041,-0.093 h 0.888834 q 0.129191,0 0.217041,0.0982 0.08785,0.0982 0.08268,0.20671 0.506429,-0.30489 1.095541,-0.30489 0.945678,0 1.601969,0.69763 0.656291,0.69763 0.661458,1.68982 0,0.99219 -0.661458,1.68982 -0.656291,0.69763 -1.601969,0.69763 z"
         style="font-style:normal;font-variant:normal;font-weight:normal;font-stretch:normal;font-family:Dyuthi;-inkscape-font-specification:Dyuthi;fill:#5a271d;fill-opacity:1;stroke-width:0.26458332"
         id="path350"
         inkscape:connector-curvature="0" />
      <path
         d="m 38.745512,138.27215 q 0.04651,-0.19637 0.253214,-0.3204 0.186036,-0.11369 0.501262,-0.0103 0.315226,0.10335 0.640788,0.093 0.620117,-0.0103 0.620117,-0.38757 0,-0.17053 -0.134359,-0.27905 -0.134359,-0.10852 -0.542602,-0.25322 -1.343588,-0.46508 -1.333252,-1.4056 0.01033,-0.67696 0.527099,-1.1007 0.511597,-0.42375 1.369426,-0.42375 0.403076,-0.005 0.83199,0.11369 0.191203,0.0517 0.304891,0.22737 0.108521,0.1757 0.05168,0.37724 v 0.005 q -0.03617,0.19637 -0.227377,0.31523 -0.191203,0.11368 -0.434082,0.0465 -0.248047,-0.0672 -0.480591,-0.0775 -0.552937,-0.0103 -0.552937,0.3669 0,0.15503 0.160197,0.27906 0.160196,0.11885 0.594279,0.26871 1.245401,0.43925 1.250569,1.42627 0.01034,0.67696 -0.501261,1.10071 -0.511597,0.41858 -1.503784,0.41858 -0.521932,0 -1.038697,-0.13953 -0.180867,-0.0465 -0.299723,-0.24804 -0.113688,-0.18604 -0.05684,-0.37724 z"
         style="font-style:normal;font-variant:normal;font-weight:normal;font-stretch:normal;font-family:Dyuthi;-inkscape-font-specification:Dyuthi;fill:#5a271d;fill-opacity:1;stroke-width:0.26458332"
         id="path352"
         inkscape:connector-curvature="0" />
      <path
         d="m 44.579781,135.06821 q 0,0.35656 -0.26355,0.62011 -0.263549,0.26355 -0.625284,0.26355 -0.356568,0 -0.61495,-0.26355 -0.253215,-0.26355 -0.253215,-0.62011 0,-0.36174 0.253215,-0.61495 0.258382,-0.25322 0.61495,-0.25322 0.361735,0 0.625284,0.25322 0.26355,0.25321 0.26355,0.61495 z m -0.253214,2.28926 q 0.253214,0.25322 0.253214,0.61495 0,0.35657 -0.253214,0.62012 -0.248047,0.26355 -0.61495,0.26355 -0.356567,0 -0.625285,-0.26355 -0.26355,-0.26355 -0.26355,-0.62012 0,-0.35657 0.26355,-0.61495 0.258382,-0.25321 0.625285,-0.25321 0.356567,0 0.61495,0.25321 z"
         style="font-style:normal;font-variant:normal;font-weight:normal;font-stretch:normal;font-family:Dyuthi;-inkscape-font-specification:Dyuthi;fill:#5a271d;fill-opacity:1;stroke-width:0.26458332"
         id="path354"
         inkscape:connector-curvature="0" />
      <path
         d="m 46.4453,132.42754 q 0.113689,-0.34106 0.465088,-0.34106 h 0.01034 q 0.242879,0 0.39274,0.1912 0.139527,0.20671 0.06718,0.44442 l -2.08256,6.40271 q -0.103353,0.34106 -0.465088,0.34106 h -0.0155 q -0.242879,0 -0.387573,-0.1912 -0.139527,-0.18604 -0.06718,-0.43408 z"
         style="font-style:normal;font-variant:normal;font-weight:normal;font-stretch:normal;font-family:Dyuthi;-inkscape-font-specification:Dyuthi;fill:#5a271d;fill-opacity:1;stroke-width:0.26458332"
         id="path356"
         inkscape:connector-curvature="0" />
      <path
         d="m 49.261667,132.42754 q 0.113688,-0.34106 0.465087,-0.34106 h 0.01034 q 0.242879,0 0.392741,0.1912 0.139526,0.20671 0.06718,0.44442 l -2.08256,6.40271 q -0.103353,0.34106 -0.465088,0.34106 h -0.0155 q -0.242879,0 -0.387573,-0.1912 -0.139527,-0.18604 -0.06718,-0.43408 z"
         style="font-style:normal;font-variant:normal;font-weight:normal;font-stretch:normal;font-family:Dyuthi;-inkscape-font-specification:Dyuthi;fill:#5a271d;fill-opacity:1;stroke-width:0.26458332"
         id="path358"
         inkscape:connector-curvature="0" />
      <path
         d="m 50.868804,136.7787 q 0,0 0,-1.87586 0,-0.23771 0.206706,-0.44441 0.144694,-0.1447 0.511597,-0.13953 h 0.0155 q 0.366902,0 0.511596,0.13953 0.206706,0.2067 0.206706,0.44441 v 1.97921 q 0,0.69763 0.454753,0.91467 0.54777,0.26872 0.997355,-0.005 0.449585,-0.26871 0.470255,-0.67696 v -2.14457 q 0,-0.30489 0.217041,-0.51159 0.149862,-0.1447 0.521932,-0.13953 h 0.0155 q 0.366903,0 0.511597,0.13953 0.206705,0.2067 0.206705,0.51159 v 3.61735 q 0,0.1912 -0.134358,0.33073 -0.129191,0.13953 -0.335897,0.13953 h -0.54777 q -0.186035,0 -0.330729,-0.14986 -0.144694,-0.15503 -0.139527,-0.3204 -1.855184,1.09554 -2.811198,-0.11369 -0.54777,-0.69763 -0.54777,-1.69498 z"
         style="font-style:normal;font-variant:normal;font-weight:normal;font-stretch:normal;font-family:Dyuthi;-inkscape-font-specification:Dyuthi;fill:#5a271d;fill-opacity:1;stroke-width:0.26458332"
         id="path360"
         inkscape:connector-curvature="0" />
      <path
         d="m 61.214426,136.603 q 0,0 0.01033,1.87068 0,0.29456 -0.217041,0.5116 -0.149861,0.14469 -0.521932,0.13953 h -0.0052 q -0.366903,0 -0.511597,-0.13953 -0.217041,-0.20671 -0.217041,-0.5116 v -1.95853 q 0,-0.73898 -0.449585,-0.96118 -0.454753,-0.22221 -0.976685,0.093 -0.521932,0.31523 -0.496093,0.63046 v 2.19624 q 0,0.30489 -0.206706,0.5116 -0.144694,0.14469 -0.511597,0.13953 0,0 -0.02584,0 -0.366903,0 -0.511597,-0.13953 -0.217041,-0.21704 -0.217041,-0.5116 v -3.67419 q 0,-0.20154 0.149862,-0.34106 0.149862,-0.13953 0.330729,-0.13953 h 0.537435 q 0.201538,0 0.335897,0.14986 0.134359,0.14469 0.134359,0.32039 v 0.0103 q 0.74414,-0.43925 1.105875,-0.50126 1.240235,-0.21188 1.901693,0.64079 0.356567,0.47025 0.361735,1.66398 z"
         style="font-style:normal;font-variant:normal;font-weight:normal;font-stretch:normal;font-family:Dyuthi;-inkscape-font-specification:Dyuthi;fill:#5a271d;fill-opacity:1;stroke-width:0.26458332"
         id="path362"
         inkscape:connector-curvature="0" />
      <path
         d="m 65.307197,136.94923 q 0,0 0,-0.66663 0,-0.3514 -0.134359,-0.64595 -0.134359,-0.29456 -0.356567,-0.39274 -0.470256,-0.23771 -0.909505,-0.062 -0.43925,0.17569 -0.552938,0.46508 0,0 0,1.79318 0,0.58394 0.490926,0.75447 0.242879,0.0775 0.490926,0.0362 0.397908,0 0.676961,-0.37723 0.284221,-0.37724 0.294556,-0.90434 z m -1.953369,-2.37712 q 0.506429,-0.29972 1.09554,-0.29972 0.940511,0 1.601969,0.69763 0.671794,0.70797 0.671794,1.68982 0,0.97669 -0.671794,1.68465 -0.661458,0.69763 -1.601969,0.69763 -0.589111,0 -1.09554,-0.29972 0,0.11886 -0.09302,0.21187 -0.09819,0.093 -0.206706,0.0879 0,0 -0.888834,0 -0.108521,0 -0.201538,-0.093 -0.09819,-0.093 -0.09819,-0.20671 v -5.72575 q 0,-0.30489 0.217041,-0.48576 0.217041,-0.18603 0.516764,-0.18603 h 0.02067 q 0.361735,0 0.552938,0.19637 0.186035,0.1912 0.180868,0.47542 z"
         style="font-style:normal;font-variant:normal;font-weight:normal;font-stretch:normal;font-family:Dyuthi;-inkscape-font-specification:Dyuthi;fill:#5a271d;fill-opacity:1;stroke-width:0.26458332"
         id="path364"
         inkscape:connector-curvature="0" />
      <path
         d="m 68.774688,136.56166 q 0,0 0,0.34106 0,0.53744 0.28422,0.91467 0.284221,0.37724 0.687297,0.36691 0.237712,0.0258 0.480591,-0.0465 0.490926,-0.17054 0.490926,-0.74414 0,0 0,-1.74667 -0.09302,-0.29455 -0.537435,-0.45992 -0.444417,-0.17053 -0.925008,0.0568 -0.480591,0.22221 -0.480591,1.31775 z m -0.754476,1.78283 q -0.661458,-0.69763 -0.661458,-1.68465 0,-0.99219 0.661458,-1.68982 0.661458,-0.69763 1.601969,-0.69763 0.79065,0 1.095541,0.69763 0,-0.22737 0.170532,-0.39791 0.149862,-0.14986 0.377238,-0.14986 h 0.397909 q 0.227376,0 0.387573,0.14986 0.160197,0.17054 0.160197,0.39791 v 3.77238 q 0,0.13436 -0.09302,0.21704 -0.08785,0.0827 -0.211873,0.0827 h -0.620117 q -0.134359,0 -0.310059,-0.18603 -0.1757,-0.18604 -0.315226,-0.20671 -0.139527,-0.0207 -0.26355,0.062 -0.511597,0.33072 -0.775147,0.33072 -0.940511,0 -1.601969,-0.69763 z"
         style="font-style:normal;font-variant:normal;font-weight:normal;font-stretch:normal;font-family:Dyuthi;-inkscape-font-specification:Dyuthi;fill:#5a271d;fill-opacity:1;stroke-width:0.26458332"
         id="path366"
         inkscape:connector-curvature="0" />
      <path
         d="m 73.596099,139.04212 q -0.320394,0 -0.54777,-0.2222 -0.222209,-0.22738 -0.222209,-0.54777 v -3.04891 q 0,-0.3204 0.227377,-0.54777 0.232544,-0.22738 0.542602,-0.22738 h 0.01033 q 0.310059,0 0.537435,0.22738 0.227377,0.22737 0.227377,0.54777 v 3.04891 q 0,0.32039 -0.227377,0.54777 -0.227376,0.22737 -0.537435,0.2222 z m 0.713135,-5.81876 q 0,0.3359 -0.237712,0.56844 -0.232544,0.23254 -0.558105,0.23254 -0.330729,0 -0.558106,-0.23254 -0.227376,-0.23254 -0.232544,-0.56844 0,-0.3359 0.232544,-0.56327 0.227377,-0.23255 0.558106,-0.22738 0.320394,0 0.558105,0.22221 0.237712,0.22737 0.237712,0.56844 z"
         style="font-style:normal;font-variant:normal;font-weight:normal;font-stretch:normal;font-family:Dyuthi;-inkscape-font-specification:Dyuthi;fill:#5a271d;fill-opacity:1;stroke-width:0.26458332"
         id="path368"
         inkscape:connector-curvature="0" />
      <path
         d="m 76.360786,136.56166 q 0,0 0,0.34106 0,0.53744 0.28422,0.91467 0.28422,0.37724 0.687297,0.36691 0.237711,0.0258 0.48059,-0.0465 0.490927,-0.17054 0.490927,-0.74414 0,0 0,-1.74667 -0.09302,-0.29455 -0.537435,-0.45992 -0.444418,-0.17053 -0.925008,0.0568 -0.480591,0.22221 -0.480591,1.31775 z m -0.754476,1.78283 q -0.661458,-0.69763 -0.661458,-1.68465 0,-0.99219 0.661458,-1.68982 0.661458,-0.69763 1.601969,-0.69763 0.79065,0 1.095541,0.69763 0,-0.22737 0.170532,-0.39791 0.149861,-0.14986 0.377238,-0.14986 h 0.397908 q 0.227377,0 0.387573,0.14986 0.160197,0.17054 0.160197,0.39791 v 3.77238 q 0,0.13436 -0.09302,0.21704 -0.08785,0.0827 -0.211874,0.0827 H 78.87226 q -0.134358,0 -0.310058,-0.18603 -0.1757,-0.18604 -0.315227,-0.20671 -0.139526,-0.0207 -0.263549,0.062 -0.511597,0.33072 -0.775147,0.33072 -0.940511,0 -1.601969,-0.69763 z"
         style="font-style:normal;font-variant:normal;font-weight:normal;font-stretch:normal;font-family:Dyuthi;-inkscape-font-specification:Dyuthi;fill:#5a271d;fill-opacity:1;stroke-width:0.26458332"
         id="path370"
         inkscape:connector-curvature="0" />
      <path
         d="m 82.267402,136.79937 q 0,0.79065 0.434082,1.01802 0.335897,0.18604 0.160197,0.69763 -0.1757,0.5271 -0.558106,0.5271 -0.620117,0 -0.997355,-0.7338 -0.320394,-0.63045 -0.320394,-1.60197 v -1.26607 h -0.186035 q -0.211873,0 -0.351399,-0.13436 -0.144694,-0.12919 -0.139527,-0.34623 v -0.0103 q 0,-0.20154 0.139527,-0.34623 0.139526,-0.14469 0.351399,-0.14469 h 0.186035 v -0.5271 q 0,-0.36174 0.284221,-0.57361 0.155029,-0.12403 0.439249,-0.12403 h 0.02067 q 0.1757,0 0.356567,0.22738 0.180868,0.22738 0.180868,0.47026 v 0.5271 h 0.434082 q 0.191203,0 0.335897,0.14986 0.144694,0.14986 0.144694,0.34106 v 0.0103 q 0,0.22221 -0.139527,0.3514 -0.139526,0.12919 -0.341064,0.12919 h -0.434082 z"
         style="font-style:normal;font-variant:normal;font-weight:normal;font-stretch:normal;font-family:Dyuthi;-inkscape-font-specification:Dyuthi;fill:#5a271d;fill-opacity:1;stroke-width:0.26458332"
         id="path372"
         inkscape:connector-curvature="0" />
      <path
         d="m 83.802195,138.27215 q 0.04651,-0.19637 0.253214,-0.3204 0.186035,-0.11369 0.501261,-0.0103 0.315227,0.10335 0.640788,0.093 0.620117,-0.0103 0.620117,-0.38757 0,-0.17053 -0.134358,-0.27905 -0.134359,-0.10852 -0.542603,-0.25322 -1.343587,-0.46508 -1.333252,-1.4056 0.01034,-0.67696 0.5271,-1.1007 0.511596,-0.42375 1.369425,-0.42375 0.403076,-0.005 0.831991,0.11369 0.191203,0.0517 0.304891,0.22737 0.10852,0.1757 0.05168,0.37724 v 0.005 q -0.03617,0.19637 -0.227376,0.31523 -0.191203,0.11368 -0.434082,0.0465 -0.248047,-0.0672 -0.480591,-0.0775 -0.552938,-0.0103 -0.552938,0.3669 0,0.15503 0.160197,0.27906 0.160197,0.11885 0.594279,0.26871 1.245402,0.43925 1.25057,1.42627 0.01033,0.67696 -0.501262,1.10071 -0.511596,0.41858 -1.503784,0.41858 -0.521932,0 -1.038696,-0.13953 -0.180868,-0.0465 -0.299723,-0.24804 -0.113688,-0.18604 -0.05684,-0.37724 z"
         style="font-style:normal;font-variant:normal;font-weight:normal;font-stretch:normal;font-family:Dyuthi;-inkscape-font-specification:Dyuthi;fill:#5a271d;fill-opacity:1;stroke-width:0.26458332"
         id="path374"
         inkscape:connector-curvature="0" />
      <path
         d="m 88.556426,139.04212 q -0.320394,0 -0.54777,-0.2222 -0.222208,-0.22738 -0.222208,-0.54777 v -3.04891 q 0,-0.3204 0.227376,-0.54777 0.232544,-0.22738 0.542602,-0.22738 h 0.01034 q 0.310058,0 0.537434,0.22738 0.227377,0.22737 0.227377,0.54777 v 3.04891 q 0,0.32039 -0.227377,0.54777 -0.227376,0.22737 -0.537434,0.2222 z m 0.713135,-5.81876 q 0,0.3359 -0.237712,0.56844 -0.232543,0.23254 -0.558105,0.23254 -0.330729,0 -0.558105,-0.23254 -0.227377,-0.23254 -0.232544,-0.56844 0,-0.3359 0.232544,-0.56327 0.227376,-0.23255 0.558105,-0.22738 0.320394,0 0.558105,0.22221 0.237712,0.22737 0.237712,0.56844 z"
         style="font-style:normal;font-variant:normal;font-weight:normal;font-stretch:normal;font-family:Dyuthi;-inkscape-font-specification:Dyuthi;fill:#5a271d;fill-opacity:1;stroke-width:0.26458332"
         id="path376"
         inkscape:connector-curvature="0" />
      <path
         d="m 92.328803,138.2153 q 0.423747,0 0.764811,-0.38757 0.273886,-0.31523 0.273886,-1.53996 -0.0052,-0.61495 -0.289388,-0.93018 -0.289388,-0.31522 -0.749309,-0.31522 -0.397908,0 -0.692464,0.33073 -0.3514,0.39274 -0.3514,0.91467 0.0052,1.15755 0.3514,1.53996 0.346232,0.3824 0.692464,0.38757 z m 1.762167,-3.33313 q 0.728637,0.72347 0.728637,1.74667 0,1.02319 -0.738973,1.75183 -0.733805,0.72347 -1.612304,0.7183 -0.07235,0.005 -0.139527,0 -0.992187,0.0413 -1.741495,-0.7028 -0.744141,-0.74414 -0.744141,-1.7725 0.0052,-1.03353 0.72347,-1.75183 0.72347,-0.71831 1.617472,-0.71314 0.06718,-0.005 0.139527,-0.005 1.038696,0 1.767334,0.72864 z"
         style="font-style:normal;font-variant:normal;font-weight:normal;font-stretch:normal;font-family:Dyuthi;-inkscape-font-specification:Dyuthi;fill:#5a271d;fill-opacity:1;stroke-width:0.26458332"
         id="path378"
         inkscape:connector-curvature="0" />
      <path
         d="m 98.767687,133.04249 q 0,0 0,0.0155 -0.09819,0.41858 -0.434082,0.43409 -0.883667,0.0413 -0.888835,0.84749 v 0.42375 h 0.408244 q 0.211873,0 0.366903,0.16019 0.155029,0.15503 0.160196,0.37207 v 0.0103 q 0,0.22737 -0.149861,0.37724 -0.149862,0.15503 -0.377238,0.14986 H 97.44477 v 2.55281 q 0,0.27906 -0.19637,0.48059 -0.201538,0.20154 -0.480591,0.19638 h -0.02067 q -0.28422,0 -0.480591,-0.19121 -0.19637,-0.1912 -0.19637,-0.48576 v -2.55281 h -0.144694 q -0.222209,0 -0.37207,-0.1602 -0.15503,-0.14986 -0.15503,-0.3669 v -0.0103 q 0,-0.2067 0.160197,-0.37207 0.160197,-0.15503 0.366903,-0.16019 h 0.144694 v -0.6873 q 0,-0.54777 0.470256,-1.09037 0.578776,-0.66146 1.638142,-0.68213 0.253215,-0.005 0.454753,0.21704 0.201538,0.22738 0.134359,0.52193 z"
         style="font-style:normal;font-variant:normal;font-weight:normal;font-stretch:normal;font-family:Dyuthi;-inkscape-font-specification:Dyuthi;fill:#5a271d;fill-opacity:1;stroke-width:0.26458332"
         id="path380"
         inkscape:connector-curvature="0" />
      <path
         d="m 100.7779,136.56166 q 0,0 0,0.34106 0,0.53744 0.28422,0.91467 0.28422,0.37724 0.6873,0.36691 0.23771,0.0258 0.48059,-0.0465 0.49092,-0.17054 0.49092,-0.74414 0,0 0,-1.74667 -0.093,-0.29455 -0.53743,-0.45992 -0.44442,-0.17053 -0.92501,0.0568 -0.48059,0.22221 -0.48059,1.31775 z m -0.75448,1.78283 q -0.661454,-0.69763 -0.661454,-1.68465 0,-0.99219 0.661454,-1.68982 0.66146,-0.69763 1.60197,-0.69763 0.79065,0 1.09554,0.69763 0,-0.22737 0.17054,-0.39791 0.14986,-0.14986 0.37723,-0.14986 h 0.39791 q 0.22738,0 0.38758,0.14986 0.16019,0.17054 0.16019,0.39791 v 3.77238 q 0,0.13436 -0.093,0.21704 -0.0879,0.0827 -0.21188,0.0827 h -0.62012 q -0.13435,0 -0.31005,-0.18603 -0.1757,-0.18604 -0.31523,-0.20671 -0.13953,-0.0207 -0.26355,0.062 -0.5116,0.33072 -0.77515,0.33072 -0.94051,0 -1.60197,-0.69763 z"
         style="font-style:normal;font-variant:normal;font-weight:normal;font-stretch:normal;font-family:Dyuthi;-inkscape-font-specification:Dyuthi;fill:#5a271d;fill-opacity:1;stroke-width:0.26458332"
         id="path382"
         inkscape:connector-curvature="0" />
      <path
         d="m 106.68452,136.79937 q 0,0.79065 0.43408,1.01802 0.3359,0.18604 0.1602,0.69763 -0.1757,0.5271 -0.55811,0.5271 -0.62012,0 -0.99736,-0.7338 -0.32039,-0.63045 -0.32039,-1.60197 v -1.26607 h -0.18603 q -0.21188,0 -0.3514,-0.13436 -0.1447,-0.12919 -0.13953,-0.34623 v -0.0103 q 0,-0.20154 0.13953,-0.34623 0.13952,-0.14469 0.3514,-0.14469 h 0.18603 v -0.5271 q 0,-0.36174 0.28422,-0.57361 0.15503,-0.12403 0.43925,-0.12403 h 0.0207 q 0.1757,0 0.35657,0.22738 0.18087,0.22738 0.18087,0.47026 v 0.5271 h 0.43408 q 0.1912,0 0.3359,0.14986 0.14469,0.14986 0.14469,0.34106 v 0.0103 q 0,0.22221 -0.13953,0.3514 -0.13952,0.12919 -0.34106,0.12919 h -0.43408 z"
         style="font-style:normal;font-variant:normal;font-weight:normal;font-stretch:normal;font-family:Dyuthi;-inkscape-font-specification:Dyuthi;fill:#5a271d;fill-opacity:1;stroke-width:0.26458332"
         id="path384"
         inkscape:connector-curvature="0" />
      <path
         d="m 109.54739,136.56166 q 0,0 0,0.34106 0,0.53744 0.28422,0.91467 0.28422,0.37724 0.6873,0.36691 0.23771,0.0258 0.48059,-0.0465 0.49093,-0.17054 0.49093,-0.74414 0,0 0,-1.74667 -0.093,-0.29455 -0.53744,-0.45992 -0.44442,-0.17053 -0.92501,0.0568 -0.48059,0.22221 -0.48059,1.31775 z m -0.75447,1.78283 q -0.66146,-0.69763 -0.66146,-1.68465 0,-0.99219 0.66146,-1.68982 0.66146,-0.69763 1.60197,-0.69763 0.79065,0 1.09554,0.69763 0,-0.22737 0.17053,-0.39791 0.14986,-0.14986 0.37724,-0.14986 h 0.39791 q 0.22737,0 0.38757,0.14986 0.1602,0.17054 0.1602,0.39791 v 3.77238 q 0,0.13436 -0.093,0.21704 -0.0879,0.0827 -0.21188,0.0827 h -0.62011 q -0.13436,0 -0.31006,-0.18603 -0.1757,-0.18604 -0.31523,-0.20671 -0.13952,-0.0207 -0.26355,0.062 -0.51159,0.33072 -0.77514,0.33072 -0.94051,0 -1.60197,-0.69763 z"
         style="font-style:normal;font-variant:normal;font-weight:normal;font-stretch:normal;font-family:Dyuthi;-inkscape-font-specification:Dyuthi;fill:#5a271d;fill-opacity:1;stroke-width:0.26458332"
         id="path386"
         inkscape:connector-curvature="0" />
      <path
         d="m 115.49018,138.10161 q 0,0.35657 -0.25838,0.62012 -0.25321,0.26355 -0.61495,0.26355 -0.35657,0 -0.62012,-0.26355 -0.25321,-0.26355 -0.25321,-0.62012 0,-0.36173 0.25838,-0.61495 0.25838,-0.25321 0.61495,-0.25321 0.36174,0 0.61495,0.25321 0.25838,0.25322 0.25838,0.61495 z"
         style="font-style:normal;font-variant:normal;font-weight:normal;font-stretch:normal;font-family:Dyuthi;-inkscape-font-specification:Dyuthi;fill:#5a271d;fill-opacity:1;stroke-width:0.26458332"
         id="path388"
         inkscape:connector-curvature="0" />
      <path
         d="m 117.92931,134.48943 q 0.29972,-0.21187 1.09037,-0.21187 0.1447,0 0.22221,0.10335 0.0775,0.10335 0.0517,0.22738 l -0.10335,0.48059 q -0.0724,0.45992 -0.35657,0.41858 -0.47543,-0.0775 -0.8475,0.18603 -0.37207,0.26355 -0.37723,0.60462 v 0.0103 h -0.0103 v 1.99988 q 0,0.28939 -0.21187,0.50643 -0.21188,0.21704 -0.51677,0.21704 h -0.0155 q -0.29972,0 -0.5116,-0.20671 -0.2067,-0.21187 -0.2067,-0.51676 v -3.28145 q 0,-0.29973 0.21704,-0.51677 0.21704,-0.21187 0.5116,-0.21187 h 0.0258 q 0.37724,0 0.72864,0.53743 0.1602,-0.24288 0.31006,-0.34623 z"
         style="font-style:normal;font-variant:normal;font-weight:normal;font-stretch:normal;font-family:Dyuthi;-inkscape-font-specification:Dyuthi;fill:#5a271d;fill-opacity:1;stroke-width:0.26458332"
         id="path390"
         inkscape:connector-curvature="0" />
      <path
         d="m 122.24429,138.2153 q 0.42375,0 0.76481,-0.38757 0.27389,-0.31523 0.27389,-1.53996 -0.005,-0.61495 -0.28939,-0.93018 -0.28939,-0.31522 -0.74931,-0.31522 -0.39791,0 -0.69246,0.33073 -0.3514,0.39274 -0.3514,0.91467 0.005,1.15755 0.3514,1.53996 0.34623,0.3824 0.69246,0.38757 z m 1.76217,-3.33313 q 0.72864,0.72347 0.72864,1.74667 0,1.02319 -0.73898,1.75183 -0.7338,0.72347 -1.6123,0.7183 -0.0724,0.005 -0.13953,0 -0.99218,0.0413 -1.74149,-0.7028 -0.74414,-0.74414 -0.74414,-1.7725 0.005,-1.03353 0.72347,-1.75183 0.72347,-0.71831 1.61747,-0.71314 0.0672,-0.005 0.13952,-0.005 1.0387,0 1.76734,0.72864 z"
         style="font-style:normal;font-variant:normal;font-weight:normal;font-stretch:normal;font-family:Dyuthi;-inkscape-font-specification:Dyuthi;fill:#5a271d;fill-opacity:1;stroke-width:0.26458332"
         id="path392"
         inkscape:connector-curvature="0" />
      <path
         d="m 126.5231,132.42754 q 0.11369,-0.34106 0.46509,-0.34106 h 0.0103 q 0.24288,0 0.39275,0.1912 0.13952,0.20671 0.0672,0.44442 l -2.08256,6.40271 q -0.10335,0.34106 -0.46508,0.34106 h -0.0155 q -0.24288,0 -0.38757,-0.1912 -0.13953,-0.18604 -0.0672,-0.43408 z"
         style="font-style:normal;font-variant:normal;font-weight:normal;font-stretch:normal;font-family:Dyuthi;-inkscape-font-specification:Dyuthi;fill:#5a271d;fill-opacity:1;stroke-width:0.26458332"
         id="path394"
         inkscape:connector-curvature="0" />
    </g>
  </g>
</svg>
